<?xml version="1.0" standalone="no"?>
<!DOCTYPE svg PUBLIC "-//W3C//DTD SVG 20010904//EN"
 "http://www.w3.org/TR/2001/REC-SVG-20010904/DTD/svg10.dtd">
<svg version="1.0" xmlns="http://www.w3.org/2000/svg"
 width="600.000000pt" height="600.000000pt" viewBox="0 0 600.000000 600.000000"
 preserveAspectRatio="xMidYMid meet">

<g transform="translate(0.000000,600.000000) scale(0.100000,-0.100000)"
fill="#000000" stroke="none">
<path d="M4130 5478 c-19 -5 -49 -20 -65 -33 -34 -25 -79 -102 -90 -152 -6
-30 -4 -33 37 -51 55 -25 191 -143 244 -213 54 -71 70 -102 88 -180 8 -36 42
-126 74 -200 33 -73 70 -165 81 -204 36 -116 62 -291 67 -455 7 -195 15 -233
75 -348 54 -102 56 -114 33 -171 -14 -35 -14 -42 0 -76 21 -49 20 -72 -1 -85
-16 -9 -13 -14 26 -50 45 -41 91 -60 151 -60 l35 -1 -30 -22 c-57 -41 -146
-131 -198 -199 l-52 -69 -8 33 c-30 117 -72 191 -121 215 -31 14 -53 14 -287
-6 -274 -23 -362 -37 -403 -65 -64 -41 -147 -221 -131 -285 11 -43 32 -69 69
-81 31 -10 42 -8 105 19 38 17 72 31 75 31 3 0 -76 -82 -177 -183 -208 -209
-357 -378 -430 -489 l-50 -78 -165 0 -164 0 30 37 c89 113 545 538 631 589 48
28 65 74 58 158 -9 123 -64 237 -127 268 -32 15 -49 15 -205 3 -231 -19 -372
-35 -420 -47 -78 -19 -138 -88 -176 -200 l-16 -48 -12 41 c-10 33 -23 47 -71
78 l-59 38 49 6 c70 8 139 47 198 111 55 61 82 124 85 202 l2 49 55 7 c30 3
79 6 108 7 55 1 66 13 30 32 -13 6 -44 29 -70 50 -60 50 -89 61 -163 61 -33 0
-80 7 -105 15 -81 26 -190 2 -276 -62 -23 -18 -34 -21 -49 -13 -10 6 -51 8
-98 5 -68 -4 -87 -2 -119 14 -88 45 -347 89 -527 89 -81 0 -156 25 -167 55 -7
18 -24 20 -24 2 0 -10 -18 -13 -69 -13 -63 1 -72 -2 -109 -32 -40 -31 -46 -33
-199 -47 -308 -29 -533 -64 -584 -90 -53 -28 -123 -138 -149 -233 -15 -58 1
-107 42 -128 36 -19 61 -16 178 21 96 29 447 102 455 94 3 -3 -24 -67 -60
-141 -35 -74 -100 -217 -144 -318 l-79 -184 -46 -11 c-52 -13 -72 -28 -92 -66
-21 -42 -17 -98 10 -146 l25 -43 -24 -57 c-12 -32 -48 -131 -79 -221 -103
-301 -138 -464 -112 -526 38 -91 232 -206 348 -206 70 0 124 60 115 129 -8 68
87 388 225 761 l43 114 165 56 c312 105 558 236 767 406 l33 27 -46 -104
c-133 -300 -294 -767 -294 -854 0 -97 187 -233 336 -243 57 -4 62 -2 92 28 32
31 35 42 33 110 -1 34 16 111 18 80 2 -39 62 -141 93 -160 41 -25 70 -25 139
-1 156 53 467 121 652 142 l108 12 30 -36 c47 -57 82 -63 181 -32 262 83 527
134 758 146 96 5 184 9 195 10 11 1 52 -11 90 -26 55 -22 88 -28 152 -29 76
-1 83 1 120 30 21 17 61 60 89 97 l51 66 29 -30 c66 -69 215 -139 295 -139 74
0 127 63 113 134 -16 87 163 616 312 921 35 72 73 142 85 156 26 32 28 89 4
125 -35 54 -188 124 -271 124 -46 0 -98 -23 -129 -56 l-25 -27 -53 26 c-57 29
-168 56 -232 57 l-40 1 30 16 c56 30 96 66 121 108 l24 42 -9 394 c-11 442
-15 472 -91 703 -78 232 -203 460 -333 606 -37 41 -99 121 -138 177 -78 112
-152 188 -195 199 -15 4 -48 2 -73 -5 -33 -8 -61 -9 -100 -1 -63 12 -84 12
-131 -2z m342 -77 c24 -22 77 -86 116 -143 40 -58 101 -136 136 -176 82 -90
132 -164 200 -294 144 -276 216 -545 216 -811 0 -118 -3 -137 -24 -182 -62
-132 -117 -170 -230 -163 -110 7 -184 55 -222 143 -14 33 -19 89 -25 305 -8
307 -15 343 -106 548 -94 215 -104 241 -110 295 -11 96 -69 175 -220 299 -65
53 -73 63 -73 94 0 25 9 44 36 74 l37 41 72 -7 c46 -4 79 -3 91 4 34 20 60 13
106 -27z m560 -1868 c87 -35 118 -134 61 -188 -46 -43 -145 -86 -210 -92 -102
-9 -161 23 -181 100 -39 141 158 249 330 180z m-3541 -117 c54 -20 90 -24 229
-30 252 -9 403 -46 484 -117 73 -64 80 -128 28 -237 -124 -257 -605 -551
-1099 -672 -24 -6 -47 -19 -52 -29 -16 -28 -180 -495 -223 -631 -46 -148 -78
-274 -78 -313 0 -32 -8 -31 -85 3 -74 32 -123 76 -131 115 -11 60 58 300 177
617 64 169 64 171 15 217 -14 14 -26 28 -26 33 0 4 21 8 48 8 26 0 52 4 58 8
6 4 39 75 74 157 103 245 217 492 286 618 66 122 70 132 55 141 -22 14 -456
-62 -644 -113 -59 -16 -107 -26 -107 -22 1 22 59 108 81 118 56 27 496 83 651
83 64 0 71 2 106 35 44 41 68 43 153 11z m1229 -73 c115 -103 -59 -318 -203
-252 -88 40 -45 205 68 267 39 22 102 14 135 -15z m2477 -245 c36 -13 66 -34
98 -70 25 -27 45 -54 45 -59 0 -5 7 -9 15 -9 8 0 30 30 50 70 19 38 46 77 60
86 23 15 29 15 92 -5 38 -11 77 -27 88 -35 19 -13 19 -15 3 -33 -75 -83 -380
-894 -397 -1053 -5 -58 -8 -65 -26 -62 -39 6 -127 57 -156 90 -38 43 -36 60
37 279 30 89 54 164 54 167 0 3 -8 6 -18 6 -11 0 -48 -49 -112 -152 -110 -177
-223 -338 -274 -393 -35 -37 -37 -38 -92 -32 -95 10 -203 71 -249 141 -49 74
14 311 157 595 106 209 251 397 354 457 76 45 171 49 271 12z m-768 -62 c26
-28 51 -104 51 -157 0 -30 -5 -41 -22 -50 -56 -29 -213 -172 -454 -413 -257
-258 -394 -413 -394 -448 0 -22 4 -22 76 -3 78 20 395 38 528 30 118 -7 160
-18 154 -38 -3 -8 -48 -14 -149 -19 -199 -9 -554 -79 -756 -149 l-53 -18 -13
22 c-7 12 -17 31 -24 42 -29 53 -451 -5 -813 -111 -107 -31 -116 -32 -128 -16
-22 29 -45 123 -39 160 22 130 301 435 902 984 31 29 37 39 28 49 -19 19 -256
-34 -485 -108 -24 -7 -22 3 10 62 15 27 39 56 54 63 16 7 140 22 289 35 l261
21 18 -24 c21 -27 50 -122 50 -161 0 -18 -16 -36 -63 -70 -101 -76 -268 -232
-487 -455 -213 -218 -339 -369 -321 -387 6 -6 38 -4 93 8 61 13 151 19 346 22
l262 6 5 23 c3 13 7 34 10 47 21 105 402 511 889 949 26 23 37 40 33 50 -5 14
-14 14 -79 2 -104 -20 -271 -62 -352 -90 -39 -13 -72 -22 -74 -20 -8 9 50 107
71 121 23 14 88 23 362 49 197 19 189 19 214 -8z m-1928 -211 c49 -25 59 -38
38 -51 -52 -32 -348 -814 -394 -1039 -9 -44 -18 -81 -20 -83 -8 -9 -132 56
-162 85 -40 37 -41 53 -8 166 93 320 331 889 392 937 34 27 80 22 154 -15z
m201 -138 c11 -29 53 -57 87 -57 10 0 43 11 73 25 29 14 59 25 66 25 7 0 -72
-85 -175 -188 -104 -104 -226 -234 -273 -289 -47 -56 -86 -100 -88 -98 -5 4
99 273 160 414 26 62 62 132 78 155 17 22 36 54 43 70 l12 29 3 -29 c2 -16 8
-42 14 -57z m1729 -85 c-70 -138 -133 -322 -155 -453 l-6 -36 -193 -5 c-105
-3 -194 -4 -196 -2 -2 2 64 71 145 155 153 156 425 411 432 405 2 -2 -10 -31
-27 -64z"/>
<path d="M1454 3139 c-142 -271 -314 -642 -314 -676 0 -23 48 -13 175 38 280
111 513 295 601 475 34 67 39 87 39 145 0 53 -5 74 -21 96 -50 67 -138 101
-284 110 l-95 5 -101 -193z m292 36 c28 -8 61 -26 73 -39 23 -24 23 -25 6 -75
-31 -94 -152 -231 -280 -318 -68 -46 -185 -107 -192 -100 -6 7 111 250 199
415 l71 132 37 0 c20 0 59 -7 86 -15z"/>
<path d="M1580 2958 c-82 -159 -83 -161 -49 -138 92 65 229 223 229 265 0 10
-68 35 -92 35 -2 0 -42 -73 -88 -162z"/>
<path d="M5123 3014 c-141 -70 -364 -443 -462 -772 -50 -171 -48 -242 8 -250
46 -7 162 135 376 460 277 419 284 433 250 497 -37 73 -105 98 -172 65z m13
-207 c-101 -170 -297 -469 -304 -463 -8 9 126 274 183 362 60 93 142 187 156
178 4 -2 -11 -37 -35 -77z"/>
<path d="M2632 2525 c-18 -41 -32 -76 -32 -79 0 -2 28 25 62 60 34 35 59 66
57 68 -6 5 -47 26 -51 26 -2 0 -18 -34 -36 -75z"/>
<path d="M4155 2290 l-110 -110 81 0 81 0 12 56 c7 32 21 81 32 110 10 30 17
54 16 54 -1 0 -52 -49 -112 -110z"/>
<path d="M2790 5354 c-405 -55 -810 -228 -1136 -485 -318 -251 -588 -615 -734
-989 -33 -87 -110 -337 -110 -360 0 -4 28 -3 62 2 35 5 129 15 210 22 136 14
149 17 188 45 27 19 60 33 91 37 39 5 49 10 49 26 0 52 89 158 192 227 55 37
219 120 295 150 141 55 174 79 328 235 135 137 159 156 235 194 47 24 116 51
154 62 57 16 78 29 125 74 39 37 92 72 167 109 60 30 159 92 219 136 64 48
160 106 230 141 66 32 147 77 180 99 73 48 235 193 226 203 -10 11 -238 59
-351 74 -135 18 -480 17 -620 -2z"/>
<path d="M3801 4928 c-156 -17 -265 -97 -291 -212 -17 -79 2 -142 64 -202 172
-168 523 -97 606 124 44 115 9 200 -103 253 -54 25 -79 31 -177 43 -14 1 -58
-1 -99 -6z"/>
<path d="M3220 4720 c-68 -68 46 -212 135 -169 41 20 53 44 37 70 -11 17 -11
23 -2 29 14 9 8 45 -12 73 -12 16 -17 17 -41 6 -21 -9 -33 -10 -52 -1 -35 16
-42 15 -65 -8z m52 -30 c-5 -37 17 -40 55 -10 30 23 43 25 43 6 0 -7 -14 -19
-30 -26 -17 -7 -33 -17 -36 -22 -10 -16 18 -38 49 -38 29 0 30 0 12 -20 -12
-13 -31 -20 -56 -20 -75 0 -133 115 -78 154 30 21 46 11 41 -24z m78 -70 c13
-8 13 -10 -2 -10 -9 0 -20 5 -23 10 -8 13 5 13 25 0z"/>
<path d="M4224 4619 c-15 -16 -16 -23 -6 -37 48 -66 52 -141 13 -223 -24 -48
-19 -57 31 -65 34 -6 36 -4 53 37 23 57 31 166 15 213 -13 42 -56 96 -74 96
-7 0 -21 -9 -32 -21z"/>
<path d="M2998 4528 c-19 -17 -58 -81 -58 -99 0 -7 10 -28 23 -46 24 -36 50
-42 84 -18 15 11 34 14 61 9 25 -4 42 -2 46 5 4 6 18 8 32 5 27 -7 53 16 54
48 0 20 -48 48 -84 48 -14 0 -28 5 -31 10 -8 13 -80 50 -98 50 -7 0 -20 -6
-29 -12z"/>
<path d="M3412 4502 l-43 -37 50 -61 c95 -117 194 -170 302 -162 74 5 84 15
72 65 l-9 38 -60 1 c-38 1 -74 9 -100 22 -44 23 -114 93 -138 141 -9 17 -20
31 -24 31 -4 0 -26 -17 -50 -38z m331 -199 c-13 -2 -33 -2 -45 0 -13 2 -3 4
22 4 25 0 35 -2 23 -4z"/>
<path d="M2634 4320 c-23 -9 -84 -75 -84 -91 0 -22 22 -50 47 -60 20 -7 23
-13 15 -21 -21 -21 -13 -43 30 -76 23 -18 45 -32 49 -32 4 0 19 14 33 32 21
28 30 32 64 29 33 -2 43 2 61 25 65 82 -26 205 -151 203 -24 0 -52 -4 -64 -9z
m123 -11 c75 -28 122 -114 89 -164 -19 -28 -70 -37 -60 -10 7 17 -21 65 -36
65 -5 0 -24 -25 -41 -55 -32 -58 -38 -62 -56 -44 -8 8 -2 25 25 61 35 49 35
51 16 65 -23 17 -74 10 -91 -14 -12 -15 -13 -14 -13 9 0 30 34 76 64 88 29 12
70 12 103 -1z m-82 -99 c-28 -12 -57 -12 -50 0 3 6 21 10 38 9 27 0 29 -2 12
-9z m92 -62 c-3 -8 -6 -5 -6 6 -1 11 2 17 5 13 3 -3 4 -12 1 -19z"/>
<path d="M3143 4260 c-59 -30 -89 -92 -73 -149 24 -89 126 -161 228 -161 66 0
110 18 145 59 60 72 17 168 -103 229 -87 43 -142 50 -197 22z"/>
<path d="M4050 4220 c-37 -37 -19 -119 34 -154 68 -44 186 10 134 62 -10 10
-10 15 1 21 15 10 10 45 -12 75 -12 16 -17 17 -37 6 -17 -9 -29 -9 -47 -1 -34
16 -50 14 -73 -9z m52 -28 c-4 -38 7 -40 55 -11 19 12 37 18 41 14 7 -6 -13
-25 -54 -52 -18 -12 -18 -13 1 -28 11 -9 30 -14 43 -12 12 2 22 1 22 -4 0 -15
-44 -39 -72 -39 -66 0 -124 105 -82 151 27 30 50 21 46 -19z m78 -72 c13 -8
13 -10 -2 -10 -9 0 -20 5 -23 10 -8 13 5 13 25 0z"/>
<path d="M3880 4199 c-13 -6 -31 -16 -40 -24 -13 -12 -37 -20 -128 -42 -12 -3
-30 -19 -38 -36 -15 -27 -14 -35 1 -86 23 -74 27 -78 86 -86 59 -8 76 2 85 51
4 23 19 44 45 65 28 22 38 36 34 49 -4 14 0 19 17 22 18 2 24 10 26 36 6 56
-27 75 -88 51z"/>
<path d="M2280 4011 c-102 -33 -151 -95 -152 -189 0 -60 36 -110 103 -147 45
-24 68 -30 139 -33 81 -4 88 -2 150 30 79 41 121 95 127 165 6 64 -23 108 -99
147 -49 24 -71 29 -150 32 -51 2 -104 0 -118 -5z"/>
<path d="M4237 4002 c-10 -10 -17 -23 -17 -29 0 -11 43 -53 55 -53 4 0 27 -18
51 -40 24 -22 50 -40 58 -40 16 0 86 69 85 85 0 6 -6 24 -13 40 -11 27 -17 30
-62 32 -81 4 -112 8 -120 16 -11 11 -19 9 -37 -11z"/>
<path d="M2743 3913 c-33 -56 -62 -138 -63 -173 0 -41 19 -98 43 -126 l23 -26
28 24 c28 24 28 25 12 56 -30 59 -9 160 46 219 12 13 20 24 17 26 -2 2 -21 13
-41 26 l-37 22 -28 -48z"/>
<path d="M5265 3684 l5 -281 -28 -55 -27 -55 61 -22 62 -22 37 26 c21 14 44
25 53 25 12 0 13 10 7 58 -17 149 -98 441 -154 562 l-21 45 5 -281z"/>
<path d="M3930 3889 c-47 -27 -81 -79 -87 -132 -13 -116 123 -243 273 -255
179 -14 288 119 205 251 -80 125 -287 197 -391 136z"/>
<path d="M3274 3834 c-11 -58 2 -159 26 -209 14 -28 38 -56 62 -73 l40 -26 19
25 c25 32 24 45 -5 64 -13 9 -32 32 -41 51 -19 40 -22 135 -6 177 l11 27 -50
0 c-48 0 -49 0 -56 -36z"/>
<path d="M3533 3821 c-58 -36 -66 -88 -22 -132 17 -17 19 -25 10 -51 -6 -17
-11 -36 -11 -43 0 -14 35 -31 83 -40 29 -6 37 -3 47 14 9 17 15 19 30 11 34
-18 68 -12 87 16 22 34 22 109 -1 152 -39 75 -158 114 -223 73z m146 -20 c69
-36 96 -116 58 -174 -23 -35 -34 -34 -34 4 0 35 -34 75 -56 66 -8 -3 -22 -28
-32 -56 -15 -47 -36 -64 -49 -42 -3 4 6 31 19 60 14 28 25 55 25 61 0 14 -64
12 -78 -2 -10 -10 -15 -10 -22 2 -16 25 -11 50 15 75 31 32 99 34 154 6z m11
-165 c0 -6 -7 -2 -15 8 -8 11 -15 25 -15 30 0 6 7 2 15 -8 8 -11 15 -25 15
-30z"/>
<path d="M2995 3743 c-48 -17 -55 -26 -55 -80 0 -44 17 -63 57 -63 11 0 32
-14 48 -30 16 -17 35 -28 42 -26 6 3 15 -4 18 -15 11 -34 85 -17 85 20 0 10
-10 33 -23 52 -12 19 -31 57 -41 84 -29 77 -51 87 -131 58z"/>
<path d="M1876 3701 c-10 -10 -33 -22 -52 -25 -19 -4 -34 -11 -34 -16 0 -5
-10 -10 -22 -12 -18 -2 -23 -10 -23 -33 0 -30 1 -30 68 -37 38 -3 75 -9 82
-12 24 -9 53 23 60 66 7 38 5 44 -21 65 -35 28 -36 28 -58 4z"/>
<path d="M3433 3421 c-22 -11 -65 -35 -94 -55 l-54 -36 60 0 c33 0 128 -9 210
-20 253 -32 478 -43 745 -36 233 7 414 21 315 25 -41 1 -128 22 -253 61 -59
18 -78 20 -103 11 -71 -24 -214 -4 -309 44 -60 30 -126 33 -253 8 -83 -16 -93
-16 -152 0 -75 20 -61 21 -112 -2z"/>
<path d="M3270 3245 c-44 -17 -97 -18 -154 -3 -30 8 -62 9 -102 2 l-59 -9 -7
-42 c-4 -23 -12 -52 -19 -64 -11 -21 -10 -22 27 -16 22 4 151 16 287 28 l248
21 47 -24 c26 -13 61 -42 79 -65 l31 -42 17 27 c48 74 112 118 190 129 71 9
44 19 -72 27 -59 3 -155 13 -213 20 -173 23 -261 26 -300 11z"/>
<path d="M4565 3211 c-22 -5 -26 -9 -17 -15 8 -5 31 -35 52 -67 l37 -58 39 40
c22 23 34 42 29 47 -37 31 -86 62 -97 61 -7 -1 -26 -4 -43 -8z"/>
<path d="M845 3035 c-33 -8 -66 -14 -74 -14 -11 -1 -13 -22 -7 -120 12 -196
11 -196 93 -12 39 89 66 161 60 160 -7 0 -39 -7 -72 -14z"/>
<path d="M3566 2550 c-67 -51 -257 -224 -371 -339 l-110 -111 65 1 65 0 58 83
c31 45 99 129 150 185 169 188 189 211 186 211 -2 0 -21 -14 -43 -30z"/>
<path d="M1916 2463 c-135 -87 -412 -210 -598 -267 -99 -30 -78 1 -167 -246
l-49 -135 24 -40 c99 -167 378 -473 549 -602 352 -265 739 -421 1170 -473 128
-16 401 -16 530 0 416 49 818 211 1152 461 175 132 363 326 497 513 l56 78
-67 42 -68 41 -65 -66 c-50 -51 -76 -68 -113 -79 -65 -18 -166 -8 -259 24 -43
15 -83 24 -88 21 -6 -4 -66 -6 -134 -6 -181 2 -435 -41 -690 -116 -188 -55
-196 -57 -244 -44 -24 7 -60 27 -80 45 l-37 33 -85 -9 c-125 -13 -364 -64
-519 -110 -173 -52 -217 -56 -274 -29 l-44 21 -36 -34 c-75 -71 -169 -67 -335
15 -150 73 -220 170 -209 288 5 60 119 416 192 599 20 52 35 95 33 97 -1 1
-21 -9 -42 -22z"/>
</g>
</svg>
